HIERARCHY
ROOT Hip
{
	OFFSET 0 0 0
	CHANNELS 6 Xposition Yposition Zposition Zrotation Yrotation Xrotation
	JOINT ShoulderCenter
	{
		OFFSET 0 0.4363 0
		CHANNELS 3 Zrotation Yrotation Xrotation
		JOINT Head
		{
			OFFSET 0 0.1849 0
			CHANNELS 3 Zrotation Yrotation Xrotation
			End Site
			{
				OFFSET 0.0 0.0891 0.0
			}
		}
		JOINT ShoulderLeft
		{
			OFFSET -0.14 0 0
			CHANNELS 3 Zrotation Yrotation Xrotation
			JOINT ElbowLeft
			{
				OFFSET -0.25 0 0
				CHANNELS 3 Zrotation Yrotation Xrotation
				JOINT WristLeft
				{
					OFFSET -0.23 0 0
					CHANNELS 3 Zrotation Yrotation Xrotation
					End Site
					{
						OFFSET -0.0832 0.0 0.0
					}
				}
			}
		}
		JOINT ShoulderRight
		{
			OFFSET 0.14 0 0
			CHANNELS 3 Zrotation Yrotation Xrotation
			JOINT ElbowRight
			{
				OFFSET 0.25 0 0
				CHANNELS 3 Zrotation Yrotation Xrotation
				JOINT WristRight
				{
					OFFSET 0.23 0 0
					CHANNELS 3 Zrotation Yrotation Xrotation
					End Site
					{
						OFFSET 0.0832 0.0 0.0
					}
				}
			}
		}
	}
	JOINT HipLeft
	{
		OFFSET -0.0952 0 0
		CHANNELS 3 Zrotation Yrotation Xrotation
		JOINT KneeLeft
		{
			OFFSET 0 -0.3732 0
			CHANNELS 3 Zrotation Yrotation Xrotation
			JOINT AnkleLeft
			{
				OFFSET 0 -0.346 0
				CHANNELS 3 Zrotation Yrotation Xrotation
				End Site
				{
					OFFSET 0.0 0.0 0.0891
				}
			}
		}
	}
	JOINT HipRight
	{
		OFFSET 0.0952 0 0
		CHANNELS 3 Zrotation Yrotation Xrotation
		JOINT KneeRight
		{
			OFFSET 0 -0.3732 0
			CHANNELS 3 Zrotation Yrotation Xrotation
			JOINT AnkleRight
			{
				OFFSET 0 -0.346 0
				CHANNELS 3 Zrotation Yrotation Xrotation
				End Site
				{
					OFFSET 0.0 0.0 0.0891
				}
			}
		}
	}
}
MOTION
Frames: 24
Frame Time: 0.033333
0.000182218 -5.56936e-05 -0.0024783 1.32655 -4.08913 -5.26207 0.346149 0.0482481 -1.67847 0 0 0 73.9817 -17.7823 59.6086 -180 67.6132 -180 0 0 0 -71.8653 -2.83238 70.0143 180 -63.2943 -180 0 0 0 3.89873 1.69988 3.552 -6.05242 -0.719162 -32.5635 0 0 0 -6.10927 2.70521 5.39639 -1.25809 -6.99242 -36.4291 0 0 0 
0.000182133 -5.56936e-05 -0.0024783 1.38028 -4.17931 -5.26013 0.207398 0.140808 -1.77416 0 0 0 74.0384 -17.9121 59.6012 -180 68.5009 -180 0 0 0 -71.491 -1.9191 70.2647 180 -64.6293 -180 0 0 0 3.8419 1.68432 3.55245 -5.99415 -0.679676 -32.7231 -5.33608e-08 0 0 -6.03023 2.7587 5.4445 -1.45254 -6.99605 -36.3741 0 0 5.33609e-08 
0.000182131 -5.56616e-05 -0.00247826 1.4254 -4.2497 -5.26257 0.101633 0.131954 -1.83088 0 0 0 86.5487 -23.0513 49.9787 -180 72.823 -180 0 0 0 -71.1146 -0.569087 65.3324 -180 -67.672 180 0 0 0 3.413 1.41466 3.70567 -5.15484 -0.435498 -33.2089 0 0 0 -6.12727 2.07066 5.42418 -0.290941 -5.96216 -35.9724 0 0 0 
0.000182105 -5.55455e-05 -0.00247816 1.48941 -4.6193 -5.22468 -0.0265739 0.323002 -1.97654 0 0 0 86.579 -23.3214 48.9278 -180 73.1473 180 0 0 0 -70.6734 0.470182 65.216 180 -67.4114 -180 0 0 3.4151e-06 3.25319 1.26885 3.79761 -4.70802 -0.300749 -33.4821 1.06722e-07 2.66804e-08 2.48481e-17 -6.10111 2.09762 5.46272 -0.189008 -6.03883 -36.3441 0 0 0 
0.000182083 -5.553e-05 -0.00247812 1.51563 -4.63717 -5.18376 -0.112384 0.296402 -2.10607 0 0 0 86.6116 -23.4963 48.6941 -180 73.8524 -180 0 0 0 -70.4791 0.805982 65.4062 180 -67.8459 -180 0 0 0 2.87385 0.969217 3.74981 -3.90156 -0.08693 -32.6713 0 0 0 -6.07277 2.33049 5.42264 -0.523079 -6.40228 -36.7033 -2.13443e-07 9.93923e-17 5.33609e-08 
0.000182007 -5.54403e-05 -0.00247808 1.54159 -4.63393 -5.15728 -0.240307 0.220406 -2.20166 0 0 0 86.7064 -23.431 48.5233 180 75.3929 180 0 0 0 -70.2802 1.48557 66.1954 180 -71.8152 -180 0 0 0 2.86017 0.870562 3.66234 -3.63781 0.13076 -33.2622 0 0 0 -5.94945 2.51508 5.40696 -0.941545 -6.60533 -36.755 -2.13443e-07 9.93923e-17 5.33609e-08 
0.000181951 -5.52883e-05 -0.002478 1.53142 -4.59374 -5.13396 -0.307848 0.171822 -2.29338 0 0 8.53774e-07 86.8112 -23.289 48.1986 180 76.8911 180 0 0 0 -69.7213 2.23197 66.7723 180 -72.6005 -180 0 0 0 2.88116 0.959295 3.50323 -3.8475 -0.0518946 -32.663 0 0 3.41509e-06 -5.87824 2.50188 5.36768 -0.988525 -6.56968 -36.6356 0 0 0 
0.000181925 -5.51137e-05 -0.002478 1.54208 -4.3879 -5.10538 -0.497939 0.0263004 -2.39893 1.2424e-17 4.26887e-07 3.33505e-09 83.6824 -22.0335 50.0013 -180 82.5332 -180 0 0 0 -68.8593 2.97973 67.5872 -180 -75.6288 180 0 0 0 2.85841 0.979026 3.5284 -4.0298 -0.145969 -31.4771 -1.06722e-07 1.33402e-08 3.41509e-06 -5.88438 2.53634 5.27765 -1.18128 -6.57554 -36.5059 0 0 0 
0.000181892 -5.51103e-05 -0.002478 1.51776 -4.13574 -5.10287 -0.533419 -0.115263 -2.4033 0 0 0 80.4268 -21.1264 52.3327 -180 82.3563 -180 0 0 0 -68.4736 3.17978 68.2963 180 -81.1926 -180 0 0 0 2.98124 1.17511 3.59715 -4.44939 -0.360882 -32.3634 5.33609e-08 0 0 -5.84153 2.65636 5.22334 -1.35945 -6.78555 -36.5674 0 0 0 
0.000181892 -5.48218e-05 -0.00247802 1.50916 -3.98825 -5.09843 -0.617042 0.764194 -2.42907 0 0 1.66753e-09 80.9031 -20.6005 51.9647 -180 87.5693 -180 0 0 0 -68.495 1.95159 68.4014 180 -82.7244 -180 0 0 0 3.01924 1.19179 3.55071 -4.55591 -0.341849 -32.2089 0 0 0 -5.82429 2.72569 5.16684 -1.70664 -6.82522 -36.1965 0 0 0 
0.000181892 -5.48189e-05 -0.00247802 1.49097 -3.6657 -5.10381 -0.709493 0.741853 -2.54343 0 0 0 81.0644 -20.797 51.3954 -180 87.5183 -180 0 0 0 -68.4103 2.43384 68.0131 180 -84.2937 -180 0 0 0 3.10049 1.32025 3.62317 -4.89914 -0.503585 -32.2664 0 0 0 -5.69827 2.88332 4.98775 -2.39354 -6.98354 -35.5084 -1.06722e-07 -4.26887e-07 3.46846e-06 
0.000181908 -5.47584e-05 -0.00247802 1.50219 -3.45513 -5.12911 -0.870218 1.85812 -2.5073 0 0 0 81.5983 -21.1151 49.906 -180 87.5195 -180 0 0 0 -68.8224 1.13056 53.1265 7.20889e-05 -84.2107 -7.43557e-05 0 0 0 3.17085 1.4307 3.70235 -5.2425 -0.600779 -32.301 0 0 0 -5.06789 3.29976 4.80847 -3.93254 -7.23306 -34.8321 0 0 0 
0.000181971 -5.47555e-05 -0.00247796 1.49555 -3.2173 -5.14119 -0.940782 1.98585 -2.50543 0 0 0 79.8667 -21.0862 50.6055 -180 86.1483 -180 0 0 0 -69.0445 1.89674 49.1836 4.754e-06 -75.6235 -3.68914e-06 0 0 0 3.23261 1.52886 3.69619 -5.53408 -0.71453 -32.177 0 0 0 -5.1019 3.26063 4.8364 -4.02965 -7.15922 -34.4361 0 0 0 
0.000182005 -5.47555e-05 -0.00247793 1.50188 -3.14704 -5.14722 -1.0105 2.17788 -2.53951 0 0 0 75.451 -18.6252 54.34 -180 81.6826 -180 0 0 0 -69.1668 2.64924 49.0046 -6.81499e-06 -74.8222 -3.3865e-06 0 0 0 3.28009 1.23169 3.69652 -4.97863 -0.31681 -31.2645 0 0 0 -5.11237 3.24487 4.89204 -4.05662 -7.1137 -34.3182 0 0 0 
0.000182139 -5.47584e-05 -0.00247773 1.4888 -2.76648 -5.18552 -1.0832 1.95896 -2.47665 0 -8.33763e-10 0 75.5812 -18.0367 55.4969 -180 82.2514 -180 0 0 0 -69.572 3.28137 48.9776 -6.62682e-06 -72.7913 -3.60042e-06 0 0 0 3.27783 1.3919 3.93931 -5.2181 -0.437543 -32.7833 0 0 0 -5.2295 3.20335 4.93249 -4.02914 -7.09657 -34.0209 0 0 0 
0.000182204 -5.47555e-05 -0.0024777 1.49308 -2.70211 -5.19593 -1.13192 1.95473 -2.45643 -1.33402e-08 0 0 75.8952 -18.6956 57.6726 -180 82.5398 -180 0 0 0 -69.873 3.47331 54.2838 9.52429e-06 -65.4567 -1.01807e-05 0 0 0 3.17914 1.40337 3.92444 -5.25685 -0.529198 -32.3518 0 0 0 -5.40212 3.10369 4.96332 -3.85428 -7.00328 -33.7665 0 0 0 
0.000182321 -5.47544e-05 -0.00247755 1.48648 -2.53536 -5.21872 -1.17536 1.87466 -2.41641 0 0 0 78.0357 -19.0468 56.7323 -180 85.9485 -180 0 0 0 -71.2136 4.79777 52.6115 7.57376e-06 -63.4569 -8.69801e-06 -1.06722e-07 3.4151e-06 -3.18055e-15 3.18654 1.41226 4.0019 -5.30504 -0.549309 -32.2873 0 0 0 -5.53972 3.0643 5.02257 -3.67275 -6.99924 -33.8069 1.26228e-14 4.26887e-07 3.38841e-06 
0.000182432 -5.4771e-05 -0.00247755 1.47377 -2.45787 -5.21944 -1.25616 1.9368 -2.40556 0 0 0 77.0843 -18.7647 57.6968 180 83.3369 -180 0 0 0 -71.8673 5.19693 52.1703 -1.06623e-05 -61.953 2.41742e-06 0 0 0 3.2455 1.40606 4.0696 -5.38369 -0.555651 -31.8993 0 0 0 -5.61396 3.06982 5.14482 -3.53427 -7.03313 -34.0079 0 0 0 
0.000182518 -5.47869e-05 -0.00247746 1.44129 -2.33493 -5.22436 -1.30467 1.87941 -2.39888 0 0 0 77.1397 -18.2777 57.7553 -180 83.5935 -180 0 0 0 -71.9957 5.86382 49.7117 -1.44695e-05 -59.9159 1.22816e-05 0 0 0 3.28747 1.59687 4.17838 -5.65119 -0.679929 -33.4185 1.06722e-07 -2.66804e-08 8.33763e-10 -5.65457 3.26953 5.19595 -3.19673 -7.41756 -35.5421 0 0 0 
0.00018263 -5.48278e-05 -0.00247725 1.42671 -2.04344 -5.22767 -1.40847 1.61189 -2.35855 -1.33402e-08 0 0 77.2249 -18.2733 57.9736 -180 83.646 -180 0 0 0 -72.062 6.42123 46.6634 -3.92117e-06 -57.7419 6.06182e-06 0 0 0 3.30258 2.02607 4.27768 -6.48633 -1.22002 -34.0965 0 0 0 -5.68527 3.00359 5.22775 -2.98796 -6.99479 -34.8447 0 0 0 
0.00018298 -5.49916e-05 -0.00247689 1.45365 -1.86037 -5.258 -1.53526 1.51344 -2.24003 0 0 0 76.4096 -17.5693 58.58 180 83.1552 180 0 0 0 -72.1703 6.69561 44.7901 3.05021e-06 -56.2217 -1.6294e-06 0 0 0 3.22365 2.08094 4.34956 -6.46582 -1.23609 -34.8447 0 0 0 -5.85329 2.88771 5.23222 -2.62872 -6.88877 -34.9821 0 0 0 
0.000183113 -5.50763e-05 -0.0024767 1.45468 -1.73413 -5.27136 -1.64751 1.44436 -2.19331 0 0 8.53774e-07 76.0018 -17.4671 58.8576 -180 81.905 -180 0 0 0 -72.4813 7.50817 43.4254 8.21797e-06 -53.4584 -1.94332e-05 0 0 0 3.06485 1.92014 4.40128 -6.21984 -1.16946 -33.9736 0 0 0 -5.92118 2.62391 5.00956 -2.35487 -6.4982 -34.4672 0 0 0 
0.000183197 -5.51192e-05 -0.00247648 1.42976 -1.46716 -5.24836 -1.793 1.19135 -1.95532 0 0 0 75.8499 -16.8968 59.0918 180 81.8045 180 0 0 0 -73.6976 7.5152 40.0919 4.26978e-07 -49.1335 -3.95019e-06 0 0 0 3.18303 2.10929 4.44465 -6.60939 -1.3175 -34.465 0 0 0 -8.89052 0.937969 4.90545 3.37057 -5.5372 -36.2961 -4.96962e-17 2.13443e-07 -2.66804e-08 
0.000183382 -5.51626e-05 -0.00247628 1.4288 -1.32225 -5.252 -1.91316 1.09723 -1.86368 0 0 0 75.9147 -16.9112 58.9612 -180 81.7398 -180 0 0 0 -73.6476 7.43297 39.5938 1.07705e-05 -47.4382 -8.46238e-06 0 0 0 3.15167 2.08341 4.39978 -6.63249 -1.3652 -33.8596 0 0 0 -8.92259 0.950947 4.92728 3.32272 -5.54151 -36.111 0 0 0 
